<?xml version="1.0" encoding="utf-8"?>
<!-- Generator: Adobe Illustrator 28.1.0, SVG Export Plug-In . SVG Version: 6.00 Build 0)  -->
<svg version="1.1" id="Layer_1" xmlns="http://www.w3.org/2000/svg" xmlns:xlink="http://www.w3.org/1999/xlink" x="0px" y="0px"
	 viewBox="0 0 1366 768" style="enable-background:new 0 0 1366 768;" xml:space="preserve">
<style type="text/css">
	.st0{fill:#FFFFFF;}
	.st1{fill:#EE3124;}
	.st2{fill:#FF671D;}
	.st3{fill:#00B2E3;}
	.st4{fill:#121617;}
	.st5{fill:#141819;}
	.st6{display:none;fill:#131718;}
</style>
<g>
	<g>
		<path class="st0" d="M594.02,205.52c-14.63,0-28.91,3.65-28.91,47.3v178.26c0,41.87,4.35,49.08,24.63,64.31l26.52,19.9V248.93
			c0-27.66-0.54-28.68-3.57-34.35C609.45,208.76,602.81,205.52,594.02,205.52z"/>
		<path class="st0" d="M423.32,205.52c-13.97,0-28.88,3.91-28.88,50.64v174.92c0,40.21,3.2,48.62,24.5,64.23l28.31,20.76V252.82
			c0-24.71-2.26-38.49-7.1-43.34C437.43,206.78,432.09,205.52,423.32,205.52z"/>
		<path class="st0" d="M1109.85,607.45l-19.88-9.31l3.74-13.61l6.28-22.88l-23.22,4.9l-9.97,2.1l-6.91-24.19l-6.8,7.61l3.76-19.98
			h14.71c18.15,0,32.91-14.76,32.91-32.91V130.64c0-18.15-14.76-32.91-32.91-32.91h-19.92v-0.02h-421.3v0.01
			c-18.46,0.1-34.95,2.8-50.39,8.26c-12.07,4.27-23.51,10.23-34.68,18.09c-8.99-7.66-18.98-13.55-30.26-17.86
			c-14.96-5.72-31.81-8.51-51.51-8.51c-21.37,0-39.67,3.63-56.86,11.48v-4.24h-14.47H222.46h-43.19l34.48,26.02l29.45,22.22
			c9.87,7.46,13.31,11.07,15.34,16.1c2.55,6.31,3.54,16.6,3.54,36.67v225.12c0,20.07-0.99,30.36-3.54,36.67
			c-2.03,5.03-5.47,8.65-15.35,16.12l-29.43,22.22l-34.47,26.02h43.18h21.64c-7.73,3.47-14.87,8.25-21.13,14.24
			c-14.28,13.66-22.15,31.82-22.15,51.15c0,19.33,7.86,37.52,22.13,51.21c14.05,13.49,32.54,20.91,52.07,20.91
			c16.84,0,32.39-5.04,44.98-14.59c0.58-0.44,1.16-0.89,1.72-1.35H327c1.93,8.12,9.24,14.18,17.95,14.18h24.85
			c8.71,0,16.02-6.06,17.95-14.18h6.32c1.93,8.12,9.24,14.18,17.95,14.18h24.85c3.5,0,6.77-0.98,9.56-2.67
			c2.79,1.7,6.06,2.67,9.56,2.67h24.85c8.71,0,16.02-6.06,17.95-14.18h10.59c13.17,10.32,29.36,15.94,46.33,15.94
			c16.84,0,32.39-5.04,44.98-14.59c0.58-0.44,1.16-0.89,1.72-1.35h5.28c1.93,8.12,9.24,14.18,17.95,14.18h25.01
			c8.71,0,16.02-6.06,17.95-14.18h5.63c0.27,0.4,0.53,0.8,0.8,1.21l0.53,0.79l0.08,0.12l0.09,0.12c2.27,3.26,8.31,11.94,20,11.94
			h27.87c3.07,0,6.03-0.75,8.63-2.12c2.56,1.35,5.48,2.12,8.57,2.12h73.27c3.5,0,6.77-0.98,9.56-2.67c2.79,1.7,6.06,2.67,9.56,2.67
			h25.01c8.71,0,16.02-6.06,17.95-14.18h7.18l2.49,3.74l0.06,0.09l0.06,0.09c4.81,7,11.18,10.26,20.05,10.26h17.68
			c8.7,0,16.01-6.06,17.94-14.18h13.9l-5.07,16.6l21.92-2.51c8.52-0.97,20.39-2.41,30.86-3.68c2.32-0.28,4.57-0.55,6.71-0.81
			c2.13,0.26,4.38,0.53,6.7,0.81c10.48,1.27,22.35,2.71,30.87,3.68l21.92,2.51l-6.44-21.1l-0.88-2.88l29.88-24.3L1109.85,607.45z
			 M331.25,612.63c-6.21,25.65-28.35,42.53-56.22,42.53c-32.5,0-59.73-25.8-59.73-57.66c0-31.86,27.24-57.5,59.73-57.5
			c27.56,0,49.7,16.57,56.07,41.89c0.48,2.07,0,4.14-2.39,4.14c-2.55,0-19.75,0-25.16,0c-1.91,0-3.03-1.12-3.35-2.07
			c-4.46-10.83-13.06-15.93-25.16-15.93c-15.93,0-27.4,12.9-27.4,29.47c0,16.57,11.47,29.47,27.4,29.47
			c12.26,0,21.02-5.25,25.32-16.4c0.48-1.43,1.75-2.23,3.51-2.23c6.53,0,22.94,0,24.85,0C330.93,608.33,331.73,610.56,331.25,612.63
			z M440.84,649.42c0,2.23-1.75,3.98-3.98,3.98h-24.85c-2.23,0-3.98-1.75-3.98-3.98v-38.07h-34.24v38.07c0,2.23-1.75,3.98-3.98,3.98
			h-24.85c-2.23,0-3.98-1.75-3.98-3.98V545.89c0-2.23,1.75-3.98,3.98-3.98h24.85c2.23,0,3.98,1.91,3.98,3.98v38.07h34.24v-38.07
			c0-2.23,1.75-3.98,3.98-3.98h24.85c2.23,0,3.98,1.91,3.98,3.98V649.42z M484.8,649.42c0,2.23-1.75,3.98-3.98,3.98h-24.85
			c-2.23,0-3.98-1.75-3.98-3.98V545.89c0-2.23,1.75-3.98,3.98-3.98h24.85c2.23,0,3.98,1.75,3.98,3.98V649.42z M611.91,612.63
			c-6.21,25.65-28.35,42.53-56.22,42.53c-32.5,0-59.73-25.8-59.73-57.66c0-31.86,27.24-57.5,59.73-57.5
			c27.56,0,49.7,16.57,56.07,41.89c0.47,2.07,0,4.14-2.39,4.14c-2.55,0-19.75,0-25.17,0c-1.91,0-3.02-1.12-3.34-2.07
			c-4.46-10.83-13.06-15.93-25.16-15.93c-15.93,0-27.4,12.9-27.4,29.47c0,16.57,11.47,29.47,27.4,29.47
			c12.26,0,21.02-5.25,25.32-16.4c0.48-1.43,1.75-2.23,3.51-2.23c6.53,0,22.94,0,24.85,0C611.59,608.33,612.39,610.56,611.91,612.63
			z M723.57,653.41c-2.07,0-27.87,0-27.87,0c-3.34,0-5.58-2.07-8.12-5.73c-1.59-2.39-14.66-21.98-24.05-36.32h-8.92v38.07
			c0,2.23-1.91,3.98-3.98,3.98h-25.01c-2.07,0-3.98-1.75-3.98-3.98V545.89c0-2.23,1.91-3.98,3.98-3.98h25.01
			c2.07,0,3.98,1.75,3.98,3.98v38.07h8.44c8.28-16.09,18.8-36.8,19.43-38.07c1.59-2.87,3.18-3.98,6.05-3.98c0,0,24.37,0,28.51,0
			c4.62,0,5.58,1.91,3.82,5.1c-1.12,2.23-19.59,39.18-26.6,51.93c6.53,9.72,30.58,46.03,32.17,48.9
			C728.35,651.02,726.28,653.41,723.57,653.41z M222.47,517.64l29.44-22.23c20.59-15.58,24.63-22.3,24.63-64.33V205.97
			c0-42.04-4.03-48.75-24.63-64.32l-29.45-22.22h169.72v14.91c21.66-15.46,43.45-22.15,71.32-22.15c35.45,0,61.22,9.84,80.67,30.9
			c26.06-21.34,53.13-30.9,87.22-30.9c38.15,0,70.23,15.13,85.83,40.46c13.27,22.12,16.9,42.21,16.9,93.49v184.95
			c0,41.88,4.35,49.09,24.62,64.31l29.68,22.25H222.47z M818.02,649.42c0,2.23-1.75,3.98-3.98,3.98h-73.27
			c-2.23,0-3.98-1.75-3.98-3.98V545.89c0-2.23,1.75-3.98,3.98-3.98h72.79c2.07,0,3.98,1.75,3.98,3.98v19.43
			c0,2.23-1.91,3.98-3.98,3.98H769.6v14.66h35.68c2.07,0,3.98,1.75,3.98,3.98v19.43c0,2.23-1.91,3.98-3.98,3.98H769.6v14.65h44.44
			c2.23,0,3.98,1.75,3.98,3.98V649.42z M827.63,178.24h18.32c26.05,0,39.2,0.61,53.24,14.26c6.85,6.67,10.18,16.87,10.18,31.18
			c0,13.79-3.39,24.05-10.35,31.36c-8.53,8.95-27.87,14.09-53.07,14.09h-18.32V178.24z M827.63,342.14h26.17
			c24.1,0,43.72,5.49,52.48,14.68c7.75,8.14,11.52,19.66,11.52,35.22c0,15.91-3.81,27.64-11.66,35.87
			c-8.74,9.17-28.31,14.65-52.34,14.65h-26.17V342.14z M927.61,649.42c0,2.23-1.75,3.98-3.98,3.98c0,0-16.41,0-17.68,0
			c-4.62,0-6.37-1.43-8.12-3.98l-35.68-53.68v53.68c0,2.23-1.91,3.98-3.98,3.98h-25.01c-2.23,0-3.98-1.75-3.98-3.98V545.89
			c0-2.23,1.91-3.98,3.98-3.98h1.11h17.2c3.82,0,5.58,1.28,8.92,5.74c3.34,4.46,34.4,50.97,34.4,50.97v-52.72
			c0-2.23,1.75-3.98,3.98-3.98h24.85c2.23,0,3.98,1.75,3.98,3.98V649.42z M909.46,517.62l28.63-8.26
			c19.48-5.62,35.67-14.88,48.11-27.53c11-11.18,19.13-25.37,23.51-41.04c0.94-3.37,1.76-6.81,2.44-10.23
			c1.89-9.54,2.81-19.51,2.81-30.47c-0.9-59-30.65-86.1-55.45-98.43l-6.46-3.21l5.98-4.05c18.09-12.25,39.97-37.4,41.44-87.61
			c0.73-25.03-7.08-46.85-22.59-63.1c-9.61-10.08-22.37-17.92-37.94-23.3l-23.69-8.19h155.31c10.17,0,18.44,8.27,18.44,18.44v368.54
			c0,10.17-8.27,18.44-18.44,18.44H909.46z M1047.83,639.24c-1.38,1.08-2.09,3.01-1.58,4.76l2.87,9.41
			c-10.86-1.24-27.21-3.24-39.21-4.69c-12,1.45-28.35,3.45-39.21,4.69l2.87-9.41c0.5-1.75-0.2-3.68-1.58-4.76l-35-28.46l7.25-3.39
			c3.19-1.14,2.3-2.93,1.16-7.26l-5.33-19.42l20.34,4.29c1.99,0.3,3.32-0.96,3.62-2.16l2.61-9.14l16.08,18.01
			c2.28,2.89,6.92,2.89,5.48-3.77l-6.86-36.48l9.22,4.78c2.58,1.44,5.17,1.68,6.62-0.9l12.74-23.75l12.74,23.75
			c1.45,2.58,4.04,2.34,6.62,0.9l9.22-4.78l-6.86,36.48c-1.44,6.66,3.2,6.66,5.48,3.77l16.08-18.01l2.61,9.14
			c0.3,1.2,1.63,2.46,3.62,2.16l20.34-4.29l-5.33,19.42c-1.14,4.33-2.03,6.12,1.16,7.26l7.25,3.39L1047.83,639.24z"/>
	</g>
	<path class="st1" d="M1046.24,644l2.87,9.41c-10.86-1.24-27.21-3.24-39.21-4.69c-12,1.45-28.35,3.45-39.21,4.69l2.87-9.41
		c0.5-1.75-0.2-3.68-1.58-4.76l-35-28.46l7.25-3.39c3.19-1.14,2.3-2.93,1.16-7.26l-5.33-19.42l20.34,4.29
		c1.99,0.3,3.32-0.96,3.62-2.16l2.61-9.14l16.08,18.01c2.28,2.89,6.92,2.89,5.48-3.77l-6.86-36.48l9.22,4.78
		c2.58,1.44,5.17,1.68,6.62-0.9l12.74-23.75l12.74,23.75c1.45,2.58,4.04,2.34,6.62,0.9l9.22-4.78l-6.86,36.48
		c-1.44,6.66,3.2,6.66,5.48,3.77l16.08-18.01l2.61,9.14c0.3,1.2,1.63,2.46,3.62,2.16l20.34-4.29l-5.33,19.42
		c-1.14,4.33-2.03,6.12,1.16,7.26l7.25,3.39l-35,28.46C1046.44,640.31,1045.74,642.25,1046.24,644z"/>
	<path class="st2" d="M725.71,431.09V246.13c0-49.45-3.37-68.61-15.67-89.12C696,134.23,666.6,120.6,631.41,120.6
		c-33.77,0-59.16,9.43-84.91,31.53l-3.21,2.75l-2.74-3.22c-18.04-21.19-42.52-31.06-77.04-31.06c-29.12,0-50.24,7.38-72.91,25.48
		l-6.84,5.46v-23.7H247.61l9.37,7.07c22.68,17.14,27.98,25.75,27.98,71.04v225.12c0,45.29-5.3,53.9-27.98,71.05l-9.38,7.08h176.04
		l-9.7-7.11c-23.76-17.42-27.94-28.04-27.94-71.02V256.16c0-41.4,11.16-59.07,37.31-59.07c11.29,0,18.31,1.98,22.77,6.43
		c6.8,6.82,9.58,21.1,9.58,49.3v256.39h138.47l-9.44-7.08c-22.34-16.76-28.01-25.93-28.01-71.05V252.82
		c0-39.58,10.82-55.73,37.33-55.73c11.98,0,21.24,4.78,26.07,13.46c3.95,7.39,4.6,9.43,4.6,38.38v260.29h138.46l-9.46-7.08
		C731.37,485.37,725.71,476.21,725.71,431.09z"/>
	<path class="st3" d="M909.37,392.03c0,13.64-3.05,23.47-9.33,30.05c-6.97,7.31-25.12,12.04-46.24,12.04h-17.74v-83.55h17.74
		c21.19,0,39.4,4.73,46.38,12.06C906.37,369.12,909.37,378.74,909.37,392.03z M892.92,249.24c5.4-5.67,8.03-14.03,8.03-25.55
		c0-11.92-2.5-20.15-7.63-25.15c-11.74-11.42-22.35-11.87-47.36-11.87h-9.9v74.05h9.9C868.19,260.71,886.18,256.32,892.92,249.24z
		 M1071.56,120.63H961.29c8.73,4.8,16.32,10.58,22.69,17.26c17.1,17.91,25.71,41.83,24.91,69.16
		c-1.42,48.85-21.23,75.77-39.63,90.31c22.14,12.88,53.2,41.78,54.13,102.69c0,11.58-0.98,22.09-2.97,32.17
		c-0.72,3.63-1.59,7.28-2.59,10.86c-4.76,17.03-13.62,32.48-25.61,44.68c-8.52,8.64-18.6,15.82-30.14,21.45h109.49
		c5.52,0,10.01-4.49,10.01-10.01V130.64C1081.57,125.12,1077.08,120.63,1071.56,120.63z"/>
	<path id="_x31_.4pt_outline_00000134947864076294027620000014939114471544788615_" class="st4" d="M276.54,205.97v225.12
		c0,42.04-4.04,48.75-24.63,64.33l-29.44,22.23h565.97l-29.68-22.25c-20.27-15.21-24.62-22.43-24.62-64.31V246.13
		c0-51.29-3.63-71.37-16.9-93.49c-15.6-25.33-47.68-40.46-85.83-40.46c-34.09,0-61.16,9.56-87.22,30.9
		c-19.45-21.06-45.22-30.9-80.67-30.9c-27.87,0-49.66,6.69-71.32,22.15v-14.91H222.46l29.45,22.22
		C272.51,157.21,276.54,163.92,276.54,205.97z M447.24,516.07l-28.31-20.76c-21.29-15.61-24.5-24.01-24.5-64.23V256.16
		c0-46.73,14.91-50.64,28.88-50.64c8.77,0,14.11,1.26,16.82,3.96c4.85,4.86,7.1,18.63,7.1,43.34V516.07z M616.27,515.29l-26.52-19.9
		c-20.28-15.22-24.63-22.43-24.63-64.31V252.82c0-43.65,14.28-47.3,28.91-47.3c8.79,0,15.43,3.24,18.67,9.06
		c3.03,5.66,3.57,6.68,3.57,34.35V515.29z M383.76,127.85v23.7l6.84-5.46c22.67-18.1,43.79-25.48,72.91-25.48
		c34.51,0,58.99,9.87,77.04,31.06l2.74,3.22l3.21-2.75c25.75-22.1,51.14-31.53,84.91-31.53c35.2,0,64.6,13.62,78.63,36.41
		c12.31,20.5,15.67,39.66,15.67,89.12v184.95c0,45.12,5.67,54.29,27.99,71.05l9.46,7.08H624.69V248.93c0-28.95-0.65-30.99-4.6-38.38
		c-4.83-8.68-14.09-13.46-26.07-13.46c-26.52,0-37.33,16.15-37.33,55.73v178.26c0,45.11,5.67,54.28,28.01,71.05l9.44,7.08H455.67
		V252.82c0-28.2-2.77-42.49-9.58-49.3c-4.46-4.44-11.48-6.43-22.77-6.43c-26.15,0-37.31,17.67-37.31,59.07v174.92
		c0,42.98,4.18,53.6,27.94,71.02l9.7,7.11H247.61l9.38-7.08c22.67-17.15,27.98-25.76,27.98-71.05V205.97
		c0-45.29-5.3-53.9-27.98-71.04l-9.37-7.07H383.76z M1071.56,517.62h-162.1l28.63-8.26c19.48-5.62,35.67-14.88,48.11-27.53
		c11-11.18,19.13-25.37,23.51-41.04c0.94-3.37,1.76-6.81,2.44-10.23c1.89-9.54,2.81-19.51,2.81-30.47
		c-0.9-59-30.65-86.1-55.45-98.43l-6.46-3.21l5.98-4.05c18.09-12.25,39.97-37.4,41.44-87.61c0.73-25.03-7.08-46.85-22.59-63.1
		c-9.61-10.08-22.37-17.92-37.94-23.3l-23.69-8.19h155.31c10.17,0,18.44,8.27,18.44,18.44v368.54
		C1090,509.35,1081.72,517.62,1071.56,517.62z M962.07,509.19h109.49c5.52,0,10.01-4.49,10.01-10.01V130.64
		c0-5.52-4.49-10.01-10.01-10.01H961.29c8.73,4.8,16.32,10.58,22.69,17.26c17.1,17.91,25.71,41.83,24.91,69.16
		c-1.42,48.85-21.23,75.77-39.63,90.31c22.14,12.88,53.2,41.78,54.13,102.69c0,11.58-0.98,22.09-2.97,32.17
		c-0.72,3.63-1.59,7.28-2.59,10.86c-4.76,17.03-13.62,32.48-25.61,44.68C983.7,496.39,973.61,503.56,962.07,509.19z M853.8,442.55
		h-26.17V342.14h26.17c24.1,0,43.72,5.49,52.48,14.68c7.75,8.14,11.52,19.66,11.52,35.22c0,15.91-3.81,27.64-11.66,35.87
		C897.4,437.07,877.83,442.55,853.8,442.55z M836.06,434.12h17.74c21.12,0,39.27-4.72,46.24-12.04c6.28-6.58,9.33-16.41,9.33-30.05
		c0-13.29-3-22.91-9.19-29.4c-6.99-7.33-25.19-12.06-46.38-12.06h-17.74V434.12z M845.95,269.14h-18.32v-90.9h18.32
		c26.05,0,39.2,0.61,53.24,14.26c6.85,6.67,10.18,16.87,10.18,31.18c0,13.79-3.39,24.05-10.35,31.36l0,0
		C890.49,264,871.15,269.14,845.95,269.14z M836.06,260.71h9.9c22.23,0,40.23-4.4,46.97-11.47l0,0c5.4-5.67,8.03-14.03,8.03-25.55
		c0-11.92-2.5-20.15-7.63-25.15c-11.74-11.42-22.35-11.87-47.36-11.87h-9.9V260.71z"/>
	<path class="st4" d="M303.85,608.33c6.53,0,22.94,0,24.85,0c2.23,0,3.03,2.23,2.55,4.3c-6.21,25.65-28.35,42.53-56.22,42.53
		c-32.5,0-59.73-25.8-59.73-57.66c0-31.86,27.24-57.5,59.73-57.5c27.56,0,49.7,16.57,56.07,41.89c0.48,2.07,0,4.14-2.39,4.14
		c-2.55,0-19.75,0-25.16,0c-1.91,0-3.03-1.12-3.35-2.07c-4.46-10.83-13.06-15.93-25.16-15.93c-15.93,0-27.4,12.9-27.4,29.47
		s11.47,29.47,27.4,29.47c12.26,0,21.02-5.25,25.32-16.4C300.83,609.13,302.1,608.33,303.85,608.33z M440.84,545.89v103.53
		c0,2.23-1.75,3.98-3.98,3.98h-24.85c-2.23,0-3.98-1.75-3.98-3.98v-38.07h-34.24v38.07c0,2.23-1.75,3.98-3.98,3.98h-24.85
		c-2.23,0-3.98-1.75-3.98-3.98V545.89c0-2.23,1.75-3.98,3.98-3.98h24.85c2.23,0,3.98,1.91,3.98,3.98v38.07h34.24v-38.07
		c0-2.23,1.75-3.98,3.98-3.98h24.85C439.09,541.91,440.84,543.82,440.84,545.89z M484.8,545.89v103.53c0,2.23-1.75,3.98-3.98,3.98
		h-24.85c-2.23,0-3.98-1.75-3.98-3.98V545.89c0-2.23,1.75-3.98,3.98-3.98h24.85C483.05,541.91,484.8,543.66,484.8,545.89z
		 M584.51,608.33c6.53,0,22.94,0,24.85,0c2.23,0,3.03,2.23,2.55,4.3c-6.21,25.65-28.35,42.53-56.22,42.53
		c-32.5,0-59.73-25.8-59.73-57.66c0-31.86,27.24-57.5,59.73-57.5c27.56,0,49.7,16.57,56.07,41.89c0.47,2.07,0,4.14-2.39,4.14
		c-2.55,0-19.75,0-25.17,0c-1.91,0-3.02-1.12-3.34-2.07c-4.46-10.83-13.06-15.93-25.16-15.93c-15.93,0-27.4,12.9-27.4,29.47
		s11.47,29.47,27.4,29.47c12.26,0,21.02-5.25,25.32-16.4C581.49,609.13,582.76,608.33,584.51,608.33z M723.57,653.41
		c-2.07,0-27.87,0-27.87,0c-3.34,0-5.58-2.07-8.12-5.73c-1.59-2.39-14.66-21.98-24.05-36.32h-8.92v38.07c0,2.23-1.91,3.98-3.98,3.98
		h-25.01c-2.07,0-3.98-1.75-3.98-3.98V545.89c0-2.23,1.91-3.98,3.98-3.98h25.01c2.07,0,3.98,1.75,3.98,3.98v38.07h8.44
		c8.28-16.09,18.8-36.8,19.43-38.07c1.59-2.87,3.18-3.98,6.05-3.98c0,0,24.37,0,28.51,0c4.62,0,5.58,1.91,3.82,5.1
		c-1.12,2.23-19.59,39.18-26.6,51.93c6.53,9.72,30.58,46.03,32.17,48.9C728.35,651.02,726.28,653.41,723.57,653.41z M818.02,629.99
		v19.43c0,2.23-1.75,3.98-3.98,3.98h-73.27c-2.23,0-3.98-1.75-3.98-3.98V545.89c0-2.23,1.75-3.98,3.98-3.98h72.79
		c2.07,0,3.98,1.75,3.98,3.98v19.43c0,2.23-1.91,3.98-3.98,3.98H769.6v14.66h35.68c2.07,0,3.98,1.75,3.98,3.98v19.43
		c0,2.23-1.91,3.98-3.98,3.98H769.6v14.65h44.44C816.27,626.01,818.02,627.76,818.02,629.99z M905.95,653.41
		c-4.62,0-6.37-1.43-8.12-3.98l-35.68-53.68v53.68c0,2.23-1.91,3.98-3.98,3.98h-25.01c-2.23,0-3.98-1.75-3.98-3.98V545.89
		c0-2.23,1.91-3.98,3.98-3.98h1.11h17.2c3.82,0,5.58,1.28,8.92,5.74c3.34,4.46,34.4,50.97,34.4,50.97v-52.72
		c0-2.23,1.75-3.98,3.98-3.98h24.85c2.23,0,3.98,1.75,3.98,3.98v103.53c0,2.23-1.75,3.98-3.98,3.98
		C923.63,653.41,907.22,653.41,905.95,653.41z"/>
	<g>
		<path class="st5" d="M1132.07,149.1h-6.05v-31.82h-10.89v-5.19h27.82v5.19h-10.89V149.1z M1164.63,149.1l-10.73-30.91h-0.2
			c0.29,4.59,0.43,8.89,0.43,12.91v18h-5.49v-37.01h8.53l10.28,29.45h0.15l10.58-29.45h8.56v37.01h-5.83V130.8
			c0-1.84,0.05-4.24,0.14-7.19c0.09-2.95,0.17-4.74,0.24-5.37h-0.2l-11.11,30.86H1164.63z"/>
		<path class="st6" d="M1134.18,149.1c-2.68,0-5.14-0.46-7.4-1.38c-2.26-0.92-4.22-2.21-5.89-3.87c-1.67-1.66-2.96-3.62-3.87-5.87
			c-0.91-2.26-1.37-4.72-1.37-7.38c0-2.63,0.46-5.06,1.39-7.31c0.93-2.25,2.23-4.21,3.9-5.89c1.67-1.67,3.64-2.98,5.89-3.92
			c2.25-0.94,4.69-1.4,7.34-1.4c2.58,0,4.99,0.46,7.23,1.38c2.24,0.92,4.21,2.21,5.9,3.88c1.69,1.67,3.01,3.63,3.96,5.87
			c0.95,2.25,1.43,4.71,1.43,7.39c0,2.66-0.46,5.12-1.37,7.38c-0.91,2.26-2.2,4.22-3.87,5.87c-1.67,1.66-3.63,2.95-5.89,3.87
			C1139.32,148.64,1136.86,149.1,1134.18,149.1z M1134.18,146.22c2.13,0,4.13-0.38,5.98-1.15c1.85-0.76,3.49-1.85,4.9-3.25
			c1.41-1.4,2.52-3.06,3.31-4.96c0.8-1.9,1.19-3.99,1.19-6.26c0-2.15-0.38-4.17-1.15-6.06c-0.76-1.89-1.84-3.55-3.23-5
			c-1.39-1.44-3.02-2.57-4.89-3.39c-1.87-0.81-3.92-1.22-6.13-1.22s-4.26,0.39-6.14,1.16c-1.88,0.77-3.52,1.86-4.91,3.26
			c-1.4,1.4-2.48,3.06-3.24,4.96c-0.76,1.91-1.15,4-1.15,6.28c0,2.22,0.38,4.27,1.13,6.17c0.75,1.9,1.82,3.55,3.2,4.96
			c1.38,1.41,3.01,2.51,4.9,3.3C1129.86,145.83,1131.93,146.22,1134.18,146.22z M1127.19,141.62v-22.14h6.58
			c2.71,0,4.7,0.56,5.98,1.69c1.28,1.12,1.92,2.77,1.92,4.94c0,1.59-0.4,2.85-1.21,3.77c-0.8,0.92-1.72,1.59-2.76,1.99l5.84,9.75
			h-4.31l-4.95-8.62h-3.25v8.62H1127.19z M1131.03,129.87h2.61c1.35,0,2.38-0.34,3.09-1.01c0.71-0.67,1.07-1.56,1.07-2.66
			c0-1.23-0.33-2.12-0.98-2.66c-0.66-0.54-1.73-0.81-3.23-0.81h-2.56V129.87z"/>
	</g>
</g>
</svg>
