<?xml version="1.0" encoding="UTF-8" standalone="no"?><!DOCTYPE svg PUBLIC "-//W3C//DTD SVG 1.1//EN" "http://www.w3.org/Graphics/SVG/1.1/DTD/svg11.dtd"><svg width="100%" height="100%" viewBox="0 0 2000 2000" version="1.1" xmlns="http://www.w3.org/2000/svg" xmlns:xlink="http://www.w3.org/1999/xlink" xml:space="preserve" xmlns:serif="http://www.serif.com/" style="fill-rule:evenodd;clip-rule:evenodd;stroke-linecap:round;stroke-linejoin:round;stroke-miterlimit:1.5;"><path d="M871.516,583.856c1.894,-1.988 2.021,-5.073 0.297,-7.21c-1.724,-2.138 -4.766,-2.666 -7.11,-1.236c-122.575,76.228 -505.446,333.114 -389.627,501.349c152.056,220.874 944.323,-75.009 1121.099,-144.561c1.882,-0.756 2.89,-2.812 2.335,-4.763c-0.554,-1.951 -2.492,-3.169 -4.491,-2.823c-165.947,28.071 -834.138,133.542 -901.177,23.876c-58.761,-96.125 108.252,-289.781 178.674,-364.633Z" style="fill:#160808;"/><path d="M581.86,1401.227c-6.079,-12.036 -6.821,-26.073 -2.045,-38.683c4.776,-12.61 14.631,-22.634 27.158,-27.623c141.876,-56.529 590.725,-235.298 601.022,-239.4c0.12,-0.048 0.24,-0.096 0.359,-0.146c8.226,-3.401 297.332,-122.915 389.718,-161.107c1.567,-0.648 3.37,-0.012 4.184,1.475c0.814,1.487 0.378,3.349 -1.011,4.32c-127.782,89.282 -706.446,493.6 -775.28,541.695c-4.675,3.267 -9.969,5.544 -15.556,6.69c-35.926,7.277 -171.564,26.238 -228.548,-87.222Z" style="fill:#160808;"/><circle cx="766" cy="1405" r="36" style="fill:#fff;stroke:#000;stroke-width:3.96px;"/></svg>