<?xml version="1.0" encoding="UTF-8" standalone="no"?>
<!DOCTYPE svg PUBLIC "-//W3C//DTD SVG 1.1//EN" "http://www.w3.org/Graphics/SVG/1.1/DTD/svg11.dtd">
<svg width="100%" height="100%" viewBox="0 0 2000 2000" version="1.1" xmlns="http://www.w3.org/2000/svg" xmlns:xlink="http://www.w3.org/1999/xlink" xml:space="preserve" xmlns:serif="http://www.serif.com/" style="fill-rule:evenodd;clip-rule:evenodd;stroke-linecap:round;stroke-linejoin:round;stroke-miterlimit:1.5;">
    <g transform="matrix(0.803719,-0.001896,0.001896,0.803719,162.906556,257.697964)">
        <path d="M880.701,407.889C883.064,405.421 883.231,401.583 881.092,398.919C878.953,396.254 875.171,395.588 872.249,397.36C719.516,491.844 242.392,810.34 386,1020C574.541,1295.259 1561.155,929.445 1781.305,843.427C1783.649,842.491 1784.909,839.937 1784.225,837.508C1783.541,835.078 1781.133,833.557 1778.645,833.982C1572.09,868.422 740.411,997.688 657.323,861.044C584.495,741.272 792.862,500.813 880.701,407.889Z" style="fill:rgb(22,8,8);"/>
    </g>
    <g transform="matrix(0.800064,0,0,0.800064,168.411433,258.540965)">
        <path d="M516.769,1428.243C509.171,1413.199 508.243,1395.654 514.213,1379.893C520.182,1364.131 532.499,1351.603 548.157,1345.367C725.488,1274.711 1286.504,1051.267 1299.375,1046.141C1299.525,1046.081 1299.675,1046.02 1299.824,1045.959C1310.106,1041.708 1671.46,892.327 1786.932,844.592C1788.89,843.782 1791.144,844.577 1792.162,846.435C1793.179,848.294 1792.635,850.621 1790.898,851.834C1631.183,963.428 907.911,1468.785 821.875,1528.899C816.032,1532.982 809.415,1535.828 802.431,1537.261C757.528,1546.356 587.993,1570.056 516.769,1428.243Z" style="fill:rgb(22,8,8);"/>
    </g>
    <g transform="matrix(1,0,0,1,-897,504)">
        <circle cx="1663" cy="901" r="36" style="fill:white;stroke:black;stroke-width:3.96px;"/>
    </g>
</svg>
